# xmcd CD database file
#
# Track frame offsets:
#	150
#	16505
#	43467
#	76307
#	103675
#	135190
#	164632
#	195527
#	215662
#
# Disc length: 3311 seconds
#
# Revision: 0
# Processed by: cddbd v1.5.1PL0 Copyright (c) Steve Scherf et al.
# Submitted via: CDex 1.51
#
DISCID=730ced09
DTITLE=BARENBREGGE - RUSSO - PF FLYER
DYEAR=1900
DGENRE=Jazz
TTITLE0=You stepped out of a dream
TTITLE1=PF Flyer
TTITLE2=Day Dreaming
TTITLE3=I love you
TTITLE4=Song for TH
TTITLE5=Out of the Blue
TTITLE6=What's new
TTITLE7=The summer Rain
TTITLE8=Tones for Joan's bones
EXTD=
EXTT0=
EXTT1=
EXTT2=
EXTT3=
EXTT4=
EXTT5=
EXTT6=
EXTT7=
EXTT8=
PLAYORDER=
